# Blender v2.79 (sub 0) OBJ File: 'Donut.blend'
# www.blender.org
mtllib Donut.mtl
o Torus
v 1.300000 0.500000 0.000000
v 1.204509 0.793893 0.000000
v 0.954508 0.975528 0.000000
v 0.645492 0.975528 0.000000
v 0.395492 0.793893 0.000000
v 0.300000 0.500000 0.000000
v 0.395492 0.206107 0.000000
v 0.645492 0.024472 0.000000
v 0.954508 0.024472 0.000000
v 1.204509 0.206107 0.000000
v 1.051722 0.500000 -0.764121
v 0.974468 0.793893 -0.707992
v 0.772214 0.975528 -0.561046
v 0.522214 0.975528 -0.379410
v 0.319959 0.793893 -0.232464
v 0.242705 0.500000 -0.176336
v 0.319959 0.206107 -0.232464
v 0.522214 0.024472 -0.379410
v 0.772214 0.024472 -0.561046
v 0.974468 0.206107 -0.707992
v 0.401722 0.500000 -1.236373
v 0.372214 0.793893 -1.145556
v 0.294960 0.975528 -0.907791
v 0.199468 0.975528 -0.613899
v 0.122214 0.793893 -0.376135
v 0.092705 0.500000 -0.285317
v 0.122214 0.206107 -0.376135
v 0.199468 0.024472 -0.613899
v 0.294960 0.024472 -0.907791
v 0.372214 0.206107 -1.145556
v -0.401722 0.500000 -1.236373
v -0.372214 0.793893 -1.145556
v -0.294959 0.975528 -0.907791
v -0.199468 0.975528 -0.613899
v -0.122214 0.793893 -0.376135
v -0.092705 0.500000 -0.285317
v -0.122214 0.206107 -0.376135
v -0.199468 0.024472 -0.613899
v -0.294959 0.024472 -0.907791
v -0.372214 0.206107 -1.145556
v -1.051722 0.500000 -0.764120
v -0.974468 0.793893 -0.707992
v -0.772214 0.975528 -0.561046
v -0.522214 0.975528 -0.379410
v -0.319959 0.793893 -0.232464
v -0.242705 0.500000 -0.176336
v -0.319959 0.206107 -0.232464
v -0.522214 0.024472 -0.379410
v -0.772214 0.024472 -0.561046
v -0.974468 0.206107 -0.707992
v -1.300000 0.500000 -0.000000
v -1.204509 0.793893 -0.000000
v -0.954508 0.975528 -0.000000
v -0.645492 0.975528 -0.000000
v -0.395492 0.793893 -0.000000
v -0.300000 0.500000 -0.000000
v -0.395492 0.206107 -0.000000
v -0.645492 0.024472 -0.000000
v -0.954508 0.024472 -0.000000
v -1.204509 0.206107 -0.000000
v -1.051722 0.500000 0.764120
v -0.974468 0.793893 0.707992
v -0.772214 0.975528 0.561046
v -0.522214 0.975528 0.379410
v -0.319959 0.793893 0.232464
v -0.242705 0.500000 0.176336
v -0.319959 0.206107 0.232464
v -0.522214 0.024472 0.379410
v -0.772214 0.024472 0.561046
v -0.974468 0.206107 0.707992
v -0.401722 0.500000 1.236373
v -0.372214 0.793893 1.145556
v -0.294959 0.975528 0.907791
v -0.199468 0.975528 0.613899
v -0.122214 0.793893 0.376135
v -0.092705 0.500000 0.285317
v -0.122214 0.206107 0.376135
v -0.199468 0.024472 0.613899
v -0.294959 0.024472 0.907791
v -0.372214 0.206107 1.145556
v 0.401722 0.500000 1.236373
v 0.372214 0.793893 1.145556
v 0.294960 0.975528 0.907791
v 0.199468 0.975528 0.613899
v 0.122214 0.793893 0.376135
v 0.092705 0.500000 0.285317
v 0.122214 0.206107 0.376135
v 0.199468 0.024472 0.613899
v 0.294960 0.024472 0.907791
v 0.372214 0.206107 1.145556
v 1.051722 0.500000 0.764121
v 0.974468 0.793893 0.707993
v 0.772213 0.975528 0.561046
v 0.522213 0.975528 0.379411
v 0.319959 0.793893 0.232464
v 0.242705 0.500000 0.176336
v 0.319959 0.206107 0.232464
v 0.522213 0.024472 0.379411
v 0.772213 0.024472 0.561046
v 0.974468 0.206107 0.707993
vt 0.957626 0.071151
vt 0.987880 0.080618
vt 0.972646 0.145739
vt 0.932763 0.133257
vt 0.987887 0.208458
vt 0.922793 0.188087
vt 0.200813 0.149016
vt 0.160703 0.219505
vt 0.110432 0.198650
vt 0.169744 0.094415
vt 0.049049 0.181777
vt 0.123895 0.050242
vt 0.000000 0.175332
vt 0.080780 0.033369
vt 0.880040 0.645837
vt 0.886655 0.613076
vt 0.949893 0.619521
vt 0.941172 0.662710
vt 1.000000 0.636394
vt 0.985767 0.706883
vt 0.160703 0.306635
vt 0.110432 0.327491
vt 0.049049 0.344363
vt 0.000000 0.350808
vt 0.886655 0.572582
vt 0.949893 0.566137
vt 1.000000 0.549264
vt 0.200813 0.377124
vt 0.169744 0.431725
vt 0.123895 0.475898
vt 0.080780 0.492771
vt 0.880040 0.539821
vt 0.941172 0.522948
vt 0.985767 0.478775
vt 0.265712 0.404048
vt 0.265713 0.471539
vt 0.245000 0.526140
vt 0.167797 0.549138
vt 0.129537 0.677377
vt 0.067168 0.664547
vt 0.108461 0.526140
vt 0.935567 0.263928
vt 0.897451 0.263928
vt 0.891384 0.208458
vt 0.941634 0.208458
vt 0.245000 0.349447
vt 0.284763 0.332951
vt 0.330612 0.377124
vt 0.361681 0.431725
vt 0.177899 0.699256
vt 0.166318 0.827508
vt 0.114923 0.839220
vt 0.051395 0.839220
vt 0.241648 0.316078
vt 0.260290 0.283317
vt 0.309339 0.289762
vt 0.370722 0.306635
vt 0.420993 0.327491
vt 0.177899 0.933401
vt 0.129537 0.972848
vt 0.067168 0.983442
vt 0.260290 0.242823
vt 0.309339 0.236378
vt 0.370722 0.219505
vt 0.420993 0.198650
vt 0.834442 0.539821
vt 0.813396 0.644056
vt 0.763289 0.627183
vt 0.789847 0.495648
vt 0.700051 0.620738
vt 0.728715 0.478775
vt 0.241648 0.210062
vt 0.284763 0.193190
vt 0.330612 0.149016
vt 0.361681 0.094415
vt 0.813396 0.772896
vt 0.763289 0.789769
vt 0.700051 0.796214
vt 0.900199 0.029999
vt 0.924135 0.051816
vt 0.888611 0.107768
vt 0.857056 0.079007
vt 0.245000 0.176693
vt 0.265713 0.122092
vt 0.265713 0.054601
vt 0.834442 0.877131
vt 0.789847 0.921304
vt 0.728715 0.938177
vt 0.850732 0.146485
vt 0.245000 0.000000
vt 0.177899 0.837134
vt 0.177899 0.674548
vt 0.230111 0.668103
vt 0.230111 0.843579
vt 0.258775 0.526140
vt 0.319907 0.543013
vt 0.293349 0.674548
vt 0.614430 1.000000
vt 0.509865 0.917922
vt 0.564976 0.887991
vt 0.647838 0.953034
vt 0.598149 0.000000
vt 0.712140 0.013030
vt 0.697297 0.068154
vt 0.620210 0.059342
vt 0.672738 0.130255
vt 0.625507 0.124857
vt 0.647844 0.175614
vt 0.612017 0.171519
vt 0.464100 0.922256
vt 0.420993 0.762816
vt 0.469925 0.770193
vt 0.533326 0.770925
vt 0.808618 0.091097
vt 0.762540 0.120947
vt 0.712713 0.162602
vt 0.678167 0.200150
vt 0.464100 0.593421
vt 0.509865 0.613242
vt 0.564976 0.646549
vt 0.850732 0.204382
vt 0.791020 0.197557
vt 0.730162 0.209540
vt 0.834442 0.619521
vt 0.834442 0.566137
vt 0.576954 0.478775
vt 0.614430 0.507017
vt 0.647838 0.562372
vt 0.822396 0.309614
vt 0.771858 0.268721
vt 0.718422 0.253142
vt 0.982286 0.321846
vt 0.941634 0.331110
vt 0.966404 0.256900
vt 0.000000 0.827508
vt 0.014614 0.665665
vt 0.850732 0.360204
vt 0.739731 0.432113
vt 0.734434 0.366599
vt 0.712373 0.307256
vt 0.957516 0.384343
vt 0.875503 0.384343
vt 0.891384 0.331110
vt 0.726241 0.478775
vt 0.570991 0.461029
vt 0.595885 0.415670
vt 0.620443 0.353569
vt 0.635286 0.298445
vt 0.939451 0.988839
vt 0.874552 0.961915
vt 0.920401 0.917741
vt 0.960164 0.934238
vt 0.850732 0.321846
vt 0.866614 0.256900
vt 0.439592 0.354705
vt 0.474137 0.317156
vt 0.523965 0.275502
vt 0.570042 0.245652
vt 0.834442 0.891426
vt 0.895825 0.874553
vt 0.944874 0.868108
vt 0.963516 0.900869
vt 0.647838 0.789769
vt 0.647838 0.627183
vt 0.420993 0.174200
vt 0.481851 0.162216
vt 0.541563 0.169042
vt 0.834442 0.804296
vt 0.895825 0.821169
vt 0.944874 0.827614
vt 0.258775 0.985542
vt 0.293349 0.837134
vt 0.319907 0.968669
vt 0.456750 0.041406
vt 0.510187 0.056984
vt 0.560725 0.097878
vt 0.874552 0.733807
vt 0.920401 0.777980
vt 0.963516 0.794853
vt 0.343456 0.691421
vt 0.343456 0.820261
vt 0.939451 0.706883
vt 0.960164 0.761484
vt 0.943735 0.000000
vt 0.987887 0.025489
vn -0.9087 -0.2952 0.2952
vn -0.5774 -0.7947 0.1876
vn 0.0000 -1.0000 0.0000
vn 0.5774 -0.7947 -0.1876
vn 0.9087 -0.2952 -0.2952
vn -0.5616 -0.2952 0.7730
vn -0.3568 -0.7947 0.4911
vn 0.3568 -0.7947 -0.4911
vn 0.5616 -0.2952 -0.7730
vn 0.0000 -0.2952 0.9554
vn 0.0000 -0.7947 0.6071
vn 0.0000 -0.7947 -0.6071
vn 0.0000 -0.2952 -0.9554
vn 0.5616 -0.2952 0.7730
vn 0.3568 -0.7947 0.4911
vn -0.3568 -0.7947 -0.4911
vn -0.5616 -0.2952 -0.7730
vn 0.9087 -0.2952 0.2952
vn 0.5774 -0.7947 0.1876
vn -0.5774 -0.7947 -0.1876
vn -0.9087 -0.2952 -0.2952
vn 0.9087 0.2952 -0.2952
vn 0.5774 0.7947 -0.1876
vn 0.0000 1.0000 0.0000
vn -0.5774 0.7947 0.1876
vn -0.9087 0.2952 0.2952
vn 0.5616 0.2952 -0.7730
vn 0.3568 0.7947 -0.4911
vn -0.3568 0.7947 0.4911
vn -0.5616 0.2952 0.7730
vn 0.0000 0.2952 -0.9554
vn 0.0000 0.7947 -0.6071
vn 0.0000 0.7947 0.6071
vn 0.0000 0.2952 0.9554
vn -0.5616 0.2952 -0.7730
vn -0.3568 0.7947 -0.4911
vn 0.3568 0.7947 0.4911
vn 0.5616 0.2952 0.7730
vn -0.9087 0.2952 -0.2952
vn -0.5774 0.7947 -0.1876
vn 0.5774 0.7947 0.1876
vn 0.9087 0.2952 0.2952
usemtl Material.001
s off
f 6/1/1 16/2/1 17/3/1 7/4/1
f 7/4/2 17/3/2 18/5/2 8/6/2
f 8/7/3 18/8/3 19/9/3 9/10/3
f 9/10/4 19/9/4 20/11/4 10/12/4
f 10/12/5 20/11/5 11/13/5 1/14/5
f 16/15/6 26/16/6 27/17/6 17/18/6
f 17/18/7 27/17/7 28/19/7 18/20/7
f 18/8/3 28/21/3 29/22/3 19/9/3
f 19/9/8 29/22/8 30/23/8 20/11/8
f 20/11/9 30/23/9 21/24/9 11/13/9
f 26/16/10 36/25/10 37/26/10 27/17/10
f 27/17/11 37/26/11 38/27/11 28/19/11
f 28/21/3 38/28/3 39/29/3 29/22/3
f 29/22/12 39/29/12 40/30/12 30/23/12
f 30/23/13 40/30/13 31/31/13 21/24/13
f 36/25/14 46/32/14 47/33/14 37/26/14
f 37/26/15 47/33/15 48/34/15 38/27/15
f 38/28/3 48/35/3 49/36/3 39/29/3
f 39/29/16 49/36/16 50/37/16 40/30/16
f 40/38/17 50/39/17 41/40/17 31/41/17
f 46/42/18 56/43/18 57/44/18 47/45/18
f 47/46/19 57/47/19 58/48/19 48/35/19
f 48/35/3 58/48/3 59/49/3 49/36/3
f 49/50/20 59/51/20 60/52/20 50/39/20
f 50/39/21 60/52/21 51/53/21 41/40/21
f 56/54/5 66/55/5 67/56/5 57/47/5
f 57/47/4 67/56/4 68/57/4 58/48/4
f 58/48/3 68/57/3 69/58/3 59/49/3
f 59/51/2 69/59/2 70/60/2 60/52/2
f 60/52/1 70/60/1 61/61/1 51/53/1
f 66/55/9 76/62/9 77/63/9 67/56/9
f 67/56/8 77/63/8 78/64/8 68/57/8
f 68/57/3 78/64/3 79/65/3 69/58/3
f 69/66/7 79/67/7 80/68/7 70/69/7
f 70/69/6 80/68/6 71/70/6 61/71/6
f 76/62/13 86/72/13 87/73/13 77/63/13
f 77/63/12 87/73/12 88/74/12 78/64/12
f 78/64/3 88/74/3 89/75/3 79/65/3
f 79/67/11 89/76/11 90/77/11 80/68/11
f 80/68/10 90/77/10 81/78/10 71/70/10
f 86/79/17 96/80/17 97/81/17 87/82/17
f 87/73/16 97/83/16 98/84/16 88/74/16
f 88/74/3 98/84/3 99/85/3 89/75/3
f 89/76/15 99/86/15 100/87/15 90/77/15
f 90/77/14 100/87/14 91/88/14 81/78/14
f 96/80/21 6/1/21 7/4/21 97/81/21
f 97/81/20 7/4/20 8/6/20 98/89/20
f 98/84/3 8/7/3 9/10/3 99/85/3
f 99/85/19 9/10/19 10/12/19 100/90/19
f 100/91/18 10/92/18 1/93/18 91/94/18
usemtl Material.001_Donut.png
f 1/93/22 11/95/22 12/96/22 2/97/22
f 2/98/23 12/99/23 13/100/23 3/101/23
f 3/102/24 13/103/24 14/104/24 4/105/24
f 4/105/25 14/104/25 15/106/25 5/107/25
f 5/107/26 15/106/26 16/108/26 6/109/26
f 11/110/27 21/111/27 22/112/27 12/99/27
f 12/99/28 22/112/28 23/113/28 13/100/28
f 13/103/24 23/114/24 24/115/24 14/104/24
f 14/104/29 24/115/29 25/116/29 15/106/29
f 15/106/30 25/116/30 26/117/30 16/108/30
f 21/111/31 31/118/31 32/119/31 22/112/31
f 22/112/32 32/119/32 33/120/32 23/113/32
f 23/114/24 33/121/24 34/122/24 24/115/24
f 24/115/33 34/122/33 35/123/33 25/116/33
f 25/124/34 35/125/34 36/25/34 26/16/34
f 31/118/35 41/126/35 42/127/35 32/119/35
f 32/119/36 42/127/36 43/128/36 33/120/36
f 33/121/24 43/129/24 44/130/24 34/122/24
f 34/122/37 44/130/37 45/131/37 35/123/37
f 35/132/38 45/133/38 46/42/38 36/134/38
f 41/40/39 51/53/39 52/135/39 42/136/39
f 42/137/40 52/138/40 53/139/40 43/129/40
f 43/129/24 53/139/24 54/140/24 44/130/24
f 44/141/41 54/142/41 55/143/41 45/133/41
f 45/133/42 55/143/42 56/43/42 46/42/42
f 51/144/26 61/145/26 62/146/26 52/138/26
f 52/138/25 62/146/25 63/147/25 53/139/25
f 53/139/24 63/147/24 64/148/24 54/140/24
f 54/149/23 64/150/23 65/151/23 55/152/23
f 55/143/22 65/153/22 66/154/22 56/43/22
f 61/145/30 71/155/30 72/156/30 62/146/30
f 62/146/29 72/156/29 73/157/29 63/147/29
f 63/147/24 73/157/24 74/158/24 64/148/24
f 64/150/28 74/159/28 75/160/28 65/151/28
f 65/151/27 75/160/27 76/161/27 66/162/27
f 71/70/34 81/78/34 82/163/34 72/164/34
f 72/156/33 82/165/33 83/166/33 73/157/33
f 73/157/24 83/166/24 84/167/24 74/158/24
f 74/159/32 84/168/32 85/169/32 75/160/32
f 75/160/31 85/169/31 86/170/31 76/161/31
f 81/171/38 91/94/38 92/172/38 82/173/38
f 82/165/37 92/174/37 93/175/37 83/166/37
f 83/166/24 93/175/24 94/176/24 84/167/24
f 84/168/36 94/177/36 95/178/36 85/169/36
f 85/169/35 95/178/35 96/179/35 86/170/35
f 91/94/42 1/93/42 2/97/42 92/172/42
f 92/172/41 2/97/41 3/180/41 93/181/41
f 93/175/24 3/102/24 4/105/24 94/176/24
f 94/177/40 4/182/40 5/183/40 95/178/40
f 95/184/39 5/185/39 6/1/39 96/80/39
